<svg xmlns="http://www.w3.org/2000/svg" viewBox="0 0 96 96" role="img" aria-label="Ovarian cancer dataset icon">
  <rect width="96" height="96" rx="24" fill="#21182b"/>
  <path d="M48 30c-12 0-21 9-21 21 0 14 12 26 21 26s21-12 21-26c0-12-9-21-21-21Z" fill="#ffb36b"/>
  <path d="M30 42c-9-5-16 1-14 9 2 9 12 9 18 4M66 42c9-5 16 1 14 9-2 9-12 9-18 4" fill="none" stroke="#ffc9a0" stroke-width="6" stroke-linecap="round"/>
  <circle cx="43" cy="51" r="3" fill="#3a2343"/>
  <circle cx="54" cy="51" r="3" fill="#3a2343"/>
  <path d="M41 62c5 3 10 3 15 0" fill="none" stroke="#3a2343" stroke-width="3" stroke-linecap="round"/>
</svg>
